<!-- Generated by IcoMoon.io -->
<svg version="1.1" xmlns="http://www.w3.org/2000/svg" width="77" height="32" viewBox="0 0 77 32">
<path fill="#000" d="M0 0h76.8v32h-76.8v-32z"></path>
<path fill="#2e2f42" opacity="0.7" d="M0 0h76.8v32h-76.8v-32z"></path>
<path fill="#4d5ae5" d="M34.080 18.987h8.587c0.118 0 0.213 0.096 0.213 0.213v2.56c0 0.118-0.096 0.213-0.213 0.213h-8.587c-0.118 0-0.213-0.096-0.213-0.213v-2.56c0-0.118 0.096-0.213 0.213-0.213z"></path>
<path fill="#fff" d="M36.119 20.427v0.033c0 0.046-0.006 0.087-0.018 0.123s-0.029 0.067-0.051 0.093c-0.022 0.026-0.048 0.045-0.079 0.059s-0.065 0.020-0.102 0.020c-0.037 0-0.071-0.007-0.102-0.020s-0.057-0.033-0.080-0.059-0.040-0.057-0.052-0.093c-0.012-0.036-0.018-0.078-0.018-0.123v-0.033c0-0.046 0.006-0.087 0.018-0.123s0.029-0.067 0.052-0.093c0.022-0.026 0.049-0.045 0.080-0.059s0.065-0.020 0.102-0.020c0.038 0 0.072 0.007 0.102 0.020s0.057 0.033 0.080 0.059c0.022 0.026 0.039 0.057 0.051 0.093s0.018 0.077 0.018 0.123zM36.014 20.46v-0.034c0-0.034-0.003-0.064-0.010-0.090s-0.016-0.048-0.029-0.065c-0.012-0.018-0.028-0.031-0.046-0.040s-0.039-0.014-0.062-0.014-0.044 0.005-0.062 0.014c-0.018 0.009-0.033 0.022-0.046 0.040s-0.022 0.039-0.029 0.065c-0.007 0.026-0.010 0.056-0.010 0.090v0.034c0 0.034 0.003 0.064 0.010 0.090s0.016 0.048 0.029 0.066c0.013 0.018 0.029 0.031 0.047 0.040s0.039 0.013 0.062 0.013c0.023 0 0.044-0.004 0.062-0.013s0.033-0.023 0.046-0.040c0.012-0.018 0.022-0.040 0.028-0.066s0.010-0.056 0.010-0.090zM36.348 20.382v0.365h-0.1v-0.451h0.096l0.005 0.086zM36.486 20.293l-0.001 0.093c-0.006-0.001-0.013-0.002-0.020-0.003s-0.014-0.001-0.021-0.001c-0.017 0-0.032 0.003-0.045 0.007s-0.024 0.012-0.033 0.021c-0.009 0.009-0.015 0.020-0.020 0.032s-0.008 0.027-0.008 0.043l-0.023 0.002c0-0.028 0.003-0.055 0.008-0.079s0.014-0.045 0.025-0.064c0.011-0.018 0.026-0.033 0.042-0.043s0.037-0.015 0.060-0.015c0.006 0 0.013 0.001 0.020 0.002s0.013 0.002 0.016 0.004zM36.85 20.653v-0.547h0.101v0.64h-0.091l-0.010-0.093zM36.557 20.526v-0.009c0-0.034 0.004-0.065 0.012-0.093s0.020-0.053 0.035-0.073c0.015-0.021 0.034-0.036 0.056-0.047s0.047-0.017 0.074-0.017c0.027 0 0.051 0.005 0.072 0.016s0.038 0.026 0.053 0.045c0.014 0.019 0.026 0.043 0.035 0.070s0.015 0.057 0.018 0.090v0.028c-0.004 0.032-0.010 0.062-0.018 0.088s-0.020 0.050-0.035 0.069c-0.014 0.019-0.032 0.034-0.053 0.045s-0.045 0.016-0.072 0.016c-0.027 0-0.052-0.006-0.074-0.017s-0.040-0.027-0.055-0.048c-0.015-0.021-0.027-0.045-0.035-0.073s-0.012-0.058-0.012-0.091zM36.657 20.517v0.009c0 0.021 0.002 0.040 0.005 0.058s0.010 0.034 0.018 0.047c0.008 0.013 0.018 0.024 0.031 0.032s0.029 0.011 0.047 0.011c0.023 0 0.041-0.005 0.056-0.015s0.026-0.024 0.035-0.040c0.009-0.017 0.014-0.036 0.017-0.058v-0.075c-0.002-0.016-0.005-0.032-0.010-0.046s-0.012-0.026-0.020-0.037c-0.009-0.011-0.019-0.019-0.032-0.025s-0.027-0.009-0.045-0.009c-0.018 0-0.034 0.004-0.047 0.012s-0.023 0.018-0.032 0.032c-0.008 0.014-0.014 0.029-0.018 0.047s-0.006 0.037-0.006 0.058zM37.289 20.755c-0.033 0-0.063-0.005-0.090-0.016s-0.049-0.027-0.068-0.046c-0.019-0.020-0.033-0.043-0.043-0.070s-0.015-0.055-0.015-0.086v-0.017c0-0.035 0.005-0.067 0.015-0.096s0.025-0.053 0.043-0.073c0.018-0.021 0.040-0.036 0.065-0.047s0.052-0.016 0.081-0.016c0.032 0 0.060 0.005 0.085 0.016s0.044 0.026 0.060 0.046c0.016 0.019 0.028 0.043 0.036 0.070s0.012 0.057 0.012 0.089v0.043h-0.348v-0.072h0.249v-0.008c-0.001-0.018-0.004-0.035-0.011-0.051s-0.016-0.029-0.030-0.038-0.031-0.015-0.053-0.015c-0.017 0-0.032 0.004-0.045 0.011s-0.023 0.017-0.032 0.030c-0.009 0.013-0.015 0.029-0.020 0.048s-0.007 0.040-0.007 0.063v0.017c0 0.020 0.003 0.038 0.008 0.055s0.014 0.031 0.024 0.044 0.023 0.022 0.038 0.030c0.015 0.007 0.032 0.010 0.051 0.010 0.024 0 0.046-0.005 0.065-0.015s0.035-0.023 0.049-0.041l0.053 0.051c-0.010 0.014-0.022 0.028-0.038 0.041s-0.035 0.023-0.057 0.031c-0.022 0.008-0.048 0.012-0.078 0.012zM37.682 20.382v0.365h-0.1v-0.451h0.096l0.005 0.086zM37.82 20.293l-0.001 0.093c-0.006-0.001-0.013-0.002-0.020-0.003s-0.014-0.001-0.021-0.001c-0.017 0-0.032 0.003-0.045 0.007s-0.024 0.012-0.033 0.021c-0.009 0.009-0.015 0.020-0.020 0.032s-0.007 0.027-0.008 0.043l-0.023 0.002c0-0.028 0.003-0.055 0.008-0.079s0.014-0.045 0.025-0.064c0.011-0.018 0.026-0.033 0.042-0.043s0.037-0.015 0.060-0.015c0.006 0 0.013 0.001 0.020 0.002s0.013 0.002 0.016 0.004zM38.493 20.59c0-0.012-0.002-0.024-0.006-0.033s-0.010-0.019-0.020-0.027-0.023-0.016-0.040-0.023c-0.017-0.008-0.039-0.016-0.065-0.024-0.029-0.009-0.056-0.019-0.080-0.030s-0.045-0.024-0.063-0.038c-0.018-0.015-0.032-0.032-0.042-0.050s-0.015-0.041-0.015-0.066c0-0.025 0.005-0.047 0.015-0.068s0.025-0.038 0.045-0.052c0.019-0.015 0.042-0.027 0.069-0.035s0.056-0.012 0.088-0.012c0.045 0 0.084 0.008 0.116 0.025s0.058 0.039 0.075 0.067c0.018 0.028 0.027 0.059 0.027 0.093h-0.104c0-0.020-0.004-0.038-0.013-0.053s-0.021-0.028-0.038-0.037c-0.017-0.009-0.038-0.013-0.065-0.013-0.025 0-0.045 0.004-0.062 0.011s-0.029 0.018-0.037 0.030-0.012 0.027-0.012 0.043c0 0.011 0.003 0.022 0.008 0.031s0.013 0.018 0.024 0.026c0.011 0.008 0.024 0.015 0.041 0.022s0.036 0.014 0.058 0.020c0.034 0.010 0.063 0.021 0.088 0.033s0.046 0.026 0.063 0.041c0.017 0.015 0.029 0.033 0.038 0.052s0.012 0.041 0.012 0.065c0 0.026-0.005 0.049-0.015 0.069s-0.025 0.038-0.044 0.052c-0.019 0.014-0.042 0.025-0.068 0.033s-0.056 0.011-0.088 0.011c-0.029 0-0.058-0.004-0.086-0.012s-0.054-0.020-0.077-0.035c-0.023-0.016-0.041-0.036-0.055-0.060s-0.020-0.052-0.020-0.085h0.105c0 0.020 0.003 0.037 0.010 0.050s0.017 0.025 0.029 0.034c0.012 0.009 0.026 0.015 0.042 0.019s0.034 0.006 0.052 0.006c0.024 0 0.045-0.003 0.061-0.010s0.029-0.017 0.038-0.029c0.008-0.013 0.012-0.027 0.012-0.043zM38.913 20.755c-0.033 0-0.063-0.005-0.090-0.016s-0.049-0.027-0.068-0.046c-0.019-0.020-0.033-0.043-0.043-0.070s-0.015-0.055-0.015-0.086v-0.017c0-0.035 0.005-0.067 0.015-0.096s0.025-0.053 0.043-0.073c0.018-0.021 0.040-0.036 0.065-0.047s0.052-0.016 0.081-0.016c0.032 0 0.060 0.005 0.085 0.016s0.044 0.026 0.060 0.046c0.016 0.019 0.028 0.043 0.036 0.070s0.012 0.057 0.012 0.089v0.043h-0.348v-0.072h0.249v-0.008c-0.001-0.018-0.004-0.035-0.011-0.051s-0.016-0.029-0.030-0.038-0.031-0.015-0.053-0.015c-0.017 0-0.032 0.004-0.045 0.011s-0.023 0.017-0.032 0.030c-0.009 0.013-0.015 0.029-0.020 0.048s-0.007 0.040-0.007 0.063v0.017c0 0.020 0.003 0.038 0.008 0.055s0.014 0.031 0.024 0.044 0.023 0.022 0.038 0.030c0.015 0.007 0.032 0.010 0.051 0.010 0.024 0 0.046-0.005 0.065-0.015s0.035-0.023 0.049-0.041l0.053 0.051c-0.010 0.014-0.022 0.028-0.038 0.041s-0.035 0.023-0.057 0.031c-0.022 0.008-0.048 0.012-0.078 0.012zM39.307 20.382v0.365h-0.1v-0.451h0.096l0.005 0.086zM39.445 20.293l-0.001 0.093c-0.006-0.001-0.013-0.002-0.020-0.003s-0.014-0.001-0.021-0.001c-0.017 0-0.032 0.003-0.045 0.007s-0.024 0.012-0.033 0.021c-0.009 0.009-0.015 0.020-0.020 0.032s-0.008 0.027-0.008 0.043l-0.023 0.002c0-0.028 0.003-0.055 0.008-0.079s0.014-0.045 0.025-0.064c0.011-0.018 0.026-0.033 0.042-0.043s0.037-0.015 0.060-0.015c0.006 0 0.013 0.001 0.020 0.002s0.013 0.002 0.016 0.004zM39.696 20.667l0.11-0.371h0.104l-0.157 0.451h-0.065l0.007-0.080zM39.612 20.296l0.112 0.373 0.005 0.078h-0.065l-0.157-0.451h0.105zM40.115 20.296v0.451h-0.101v-0.451h0.101zM40.007 20.177c0-0.015 0.005-0.028 0.015-0.038s0.024-0.015 0.042-0.015c0.018 0 0.032 0.005 0.042 0.015s0.015 0.023 0.015 0.038c0 0.015-0.005 0.028-0.015 0.038s-0.024 0.015-0.042 0.015c-0.018 0-0.032-0.005-0.042-0.015s-0.015-0.023-0.015-0.038zM40.443 20.675c0.016 0 0.031-0.003 0.044-0.010s0.024-0.016 0.032-0.028c0.008-0.012 0.013-0.025 0.014-0.040h0.095c-0.001 0.029-0.009 0.056-0.026 0.080s-0.039 0.043-0.066 0.057c-0.028 0.014-0.058 0.021-0.091 0.021-0.034 0-0.064-0.006-0.090-0.017s-0.047-0.028-0.064-0.049c-0.017-0.021-0.030-0.045-0.038-0.072s-0.013-0.056-0.013-0.088v-0.015c0-0.031 0.004-0.060 0.013-0.088s0.021-0.052 0.038-0.072c0.017-0.021 0.038-0.037 0.064-0.049s0.055-0.018 0.090-0.018c0.036 0 0.068 0.007 0.095 0.022s0.049 0.034 0.064 0.060c0.016 0.025 0.024 0.055 0.025 0.088h-0.095c-0.001-0.017-0.005-0.032-0.012-0.045s-0.017-0.024-0.031-0.033c-0.013-0.008-0.029-0.012-0.047-0.012-0.020 0-0.037 0.004-0.050 0.012s-0.024 0.019-0.031 0.033c-0.008 0.014-0.013 0.030-0.016 0.047s-0.005 0.035-0.005 0.054v0.015c0 0.019 0.002 0.037 0.005 0.054s0.008 0.033 0.016 0.047c0.008 0.014 0.018 0.025 0.032 0.033s0.030 0.012 0.051 0.012zM40.938 20.755c-0.033 0-0.063-0.005-0.090-0.016s-0.049-0.027-0.068-0.046c-0.019-0.020-0.033-0.043-0.043-0.070s-0.015-0.055-0.015-0.086v-0.017c0-0.035 0.005-0.067 0.015-0.096s0.025-0.053 0.043-0.073c0.018-0.021 0.040-0.036 0.065-0.047s0.052-0.016 0.081-0.016c0.032 0 0.060 0.005 0.085 0.016s0.044 0.026 0.060 0.046c0.016 0.019 0.028 0.043 0.036 0.070s0.012 0.057 0.012 0.089v0.043h-0.348v-0.072h0.249v-0.008c-0.001-0.018-0.004-0.035-0.011-0.051s-0.016-0.029-0.030-0.038-0.031-0.015-0.053-0.015c-0.017 0-0.032 0.004-0.045 0.011s-0.023 0.017-0.032 0.030c-0.009 0.013-0.015 0.029-0.020 0.048s-0.007 0.040-0.007 0.063v0.017c0 0.020 0.003 0.038 0.008 0.055s0.014 0.031 0.024 0.044 0.023 0.022 0.038 0.030c0.015 0.007 0.032 0.010 0.051 0.010 0.024 0 0.046-0.005 0.065-0.015s0.035-0.023 0.049-0.041l0.053 0.051c-0.010 0.014-0.022 0.028-0.038 0.041s-0.035 0.023-0.057 0.031c-0.022 0.008-0.048 0.012-0.078 0.012z"></path>
<path fill="#fff" d="M26.842 12.299v0.341h-1.13v-0.341h1.13zM25.855 10.517v2.123h-0.438v-2.123h0.438zM26.695 11.381v0.333h-0.983v-0.333h0.983zM26.84 10.517v0.343h-1.129v-0.343h1.129zM27.639 12.64h-0.423v-1.718c0-0.12 0.023-0.22 0.070-0.302s0.114-0.145 0.2-0.187c0.087-0.043 0.189-0.064 0.308-0.064 0.039 0 0.076 0.003 0.112 0.009 0.036 0.005 0.071 0.011 0.105 0.019l-0.004 0.316c-0.018-0.005-0.038-0.008-0.058-0.010s-0.044-0.003-0.071-0.003c-0.051 0-0.094 0.009-0.13 0.026s-0.062 0.041-0.080 0.074c-0.018 0.033-0.028 0.073-0.028 0.121v1.718zM27.954 11.062v0.297h-0.973v-0.297h0.973zM28.77 12.64h-0.423v-1.718c0-0.12 0.023-0.22 0.070-0.302 0.048-0.083 0.114-0.145 0.2-0.187 0.087-0.043 0.189-0.064 0.308-0.064 0.039 0 0.076 0.003 0.112 0.009 0.036 0.005 0.071 0.011 0.105 0.019l-0.004 0.316c-0.018-0.005-0.038-0.008-0.058-0.010s-0.044-0.003-0.071-0.003c-0.051 0-0.094 0.009-0.13 0.026s-0.062 0.041-0.080 0.074c-0.018 0.033-0.028 0.073-0.028 0.121v1.718zM29.085 11.062v0.297h-0.973v-0.297h0.973zM30.056 12.669c-0.122 0-0.232-0.019-0.33-0.058s-0.18-0.095-0.248-0.165c-0.067-0.070-0.119-0.151-0.155-0.244s-0.054-0.192-0.054-0.297v-0.058c0-0.12 0.017-0.229 0.051-0.328s0.083-0.185 0.146-0.258c0.064-0.073 0.142-0.129 0.233-0.168s0.194-0.060 0.309-0.060c0.112 0 0.211 0.018 0.297 0.055s0.159 0.089 0.217 0.158c0.059 0.068 0.104 0.15 0.134 0.245s0.045 0.199 0.045 0.315v0.175h-1.254v-0.28h0.841v-0.032c0-0.058-0.011-0.11-0.032-0.156-0.020-0.047-0.052-0.084-0.093-0.111s-0.095-0.041-0.16-0.041c-0.055 0-0.103 0.012-0.143 0.036s-0.072 0.058-0.098 0.102c-0.024 0.044-0.043 0.095-0.055 0.155-0.012 0.058-0.017 0.122-0.017 0.192v0.058c0 0.063 0.009 0.121 0.026 0.175s0.044 0.1 0.077 0.139c0.034 0.039 0.075 0.069 0.122 0.090s0.104 0.032 0.165 0.032c0.076 0 0.146-0.015 0.211-0.044s0.123-0.075 0.171-0.136l0.204 0.222c-0.033 0.048-0.078 0.093-0.136 0.137-0.056 0.044-0.124 0.080-0.204 0.108s-0.171 0.041-0.273 0.041zM31.654 12.341c0.052 0 0.097-0.010 0.137-0.029s0.071-0.049 0.093-0.085c0.023-0.037 0.035-0.080 0.036-0.13h0.395c-0.001 0.111-0.031 0.21-0.089 0.296s-0.137 0.153-0.235 0.203c-0.098 0.049-0.208 0.073-0.33 0.073s-0.229-0.020-0.321-0.061c-0.090-0.041-0.166-0.097-0.226-0.169-0.060-0.073-0.105-0.158-0.136-0.254s-0.045-0.201-0.045-0.312v-0.042c0-0.112 0.015-0.216 0.045-0.312s0.075-0.182 0.136-0.254c0.060-0.073 0.136-0.13 0.226-0.171s0.196-0.061 0.318-0.061c0.129 0 0.243 0.025 0.34 0.074s0.175 0.121 0.23 0.213c0.056 0.091 0.085 0.2 0.086 0.325h-0.395c-0.001-0.053-0.012-0.1-0.034-0.143s-0.051-0.077-0.090-0.102c-0.039-0.026-0.087-0.039-0.144-0.039-0.061 0-0.111 0.013-0.15 0.039s-0.069 0.060-0.090 0.105c-0.021 0.044-0.036 0.094-0.045 0.15s-0.012 0.114-0.012 0.175v0.042c0 0.061 0.004 0.12 0.012 0.176s0.022 0.106 0.044 0.15c0.022 0.044 0.053 0.078 0.092 0.104s0.089 0.038 0.152 0.038zM33.392 11.062v0.297h-0.919v-0.297h0.919zM32.701 10.673h0.42v1.492c0 0.046 0.006 0.081 0.017 0.105s0.031 0.041 0.055 0.051c0.024 0.009 0.055 0.013 0.092 0.013 0.026 0 0.050-0.001 0.070-0.003s0.039-0.006 0.054-0.009l0.001 0.309c-0.036 0.012-0.075 0.021-0.117 0.028s-0.088 0.010-0.139 0.010c-0.092 0-0.173-0.015-0.242-0.045s-0.121-0.081-0.157-0.149-0.055-0.158-0.055-0.268v-1.534zM34.135 11.062v1.578h-0.422v-1.578h0.422zM33.687 10.651c0-0.061 0.021-0.112 0.064-0.152s0.1-0.060 0.172-0.060c0.071 0 0.128 0.020 0.171 0.060s0.066 0.090 0.066 0.152c0 0.061-0.022 0.112-0.066 0.152s-0.1 0.060-0.171 0.060c-0.072 0-0.129-0.020-0.172-0.060s-0.064-0.090-0.064-0.152zM35.078 12.334l0.35-1.272h0.439l-0.532 1.578h-0.265l0.009-0.306zM34.837 11.062l0.351 1.273 0.007 0.305h-0.267l-0.532-1.578h0.44zM36.821 12.669c-0.123 0-0.232-0.019-0.33-0.058s-0.18-0.095-0.248-0.165c-0.067-0.070-0.119-0.151-0.155-0.244s-0.054-0.192-0.054-0.297v-0.058c0-0.12 0.017-0.229 0.051-0.328s0.083-0.185 0.146-0.258c0.064-0.073 0.142-0.129 0.233-0.168s0.194-0.060 0.309-0.060c0.112 0 0.211 0.018 0.297 0.055s0.159 0.089 0.217 0.158c0.059 0.068 0.104 0.15 0.134 0.245s0.045 0.199 0.045 0.315v0.175h-1.254v-0.28h0.841v-0.032c0-0.058-0.011-0.11-0.032-0.156s-0.052-0.084-0.093-0.111c-0.042-0.027-0.095-0.041-0.16-0.041-0.055 0-0.103 0.012-0.143 0.036s-0.072 0.058-0.098 0.102c-0.024 0.044-0.043 0.095-0.055 0.155-0.012 0.058-0.017 0.122-0.017 0.192v0.058c0 0.063 0.009 0.121 0.026 0.175s0.044 0.1 0.077 0.139c0.034 0.039 0.075 0.069 0.123 0.090s0.104 0.032 0.165 0.032c0.076 0 0.146-0.015 0.211-0.044s0.123-0.075 0.171-0.136l0.204 0.222c-0.033 0.048-0.078 0.093-0.136 0.137s-0.124 0.080-0.204 0.108c-0.080 0.027-0.171 0.041-0.273 0.041zM39.702 12.084c0-0.038-0.006-0.072-0.017-0.102s-0.031-0.059-0.061-0.085c-0.030-0.026-0.072-0.052-0.127-0.077s-0.125-0.052-0.211-0.079c-0.096-0.031-0.188-0.066-0.274-0.105s-0.161-0.084-0.228-0.136c-0.065-0.053-0.117-0.113-0.155-0.182s-0.055-0.149-0.055-0.241c0-0.088 0.019-0.169 0.058-0.241s0.093-0.135 0.163-0.187c0.070-0.052 0.153-0.093 0.248-0.121s0.202-0.042 0.316-0.042c0.157 0 0.293 0.028 0.41 0.085s0.207 0.134 0.271 0.232c0.065 0.098 0.098 0.21 0.098 0.337h-0.435c0-0.062-0.013-0.117-0.039-0.163s-0.064-0.085-0.117-0.112c-0.052-0.027-0.117-0.041-0.195-0.041-0.076 0-0.139 0.012-0.19 0.035s-0.088 0.053-0.114 0.092c-0.025 0.038-0.038 0.081-0.038 0.128 0 0.036 0.009 0.069 0.026 0.098s0.046 0.056 0.082 0.082c0.036 0.025 0.080 0.049 0.133 0.071s0.113 0.044 0.182 0.066c0.116 0.035 0.217 0.074 0.305 0.118s0.162 0.093 0.222 0.147c0.059 0.054 0.104 0.116 0.134 0.185s0.045 0.147 0.045 0.235c0 0.092-0.018 0.175-0.054 0.248s-0.088 0.135-0.156 0.185c-0.068 0.051-0.149 0.089-0.244 0.115s-0.2 0.039-0.316 0.039c-0.105 0-0.209-0.014-0.311-0.041s-0.195-0.070-0.279-0.127c-0.083-0.056-0.149-0.128-0.198-0.216s-0.074-0.191-0.074-0.311h0.439c0 0.066 0.010 0.122 0.031 0.168s0.049 0.083 0.086 0.111c0.038 0.028 0.083 0.049 0.134 0.061s0.11 0.019 0.172 0.019c0.076 0 0.138-0.011 0.187-0.032 0.050-0.021 0.086-0.051 0.109-0.089 0.024-0.038 0.036-0.081 0.036-0.128zM40.404 11.867v-0.031c0-0.116 0.017-0.222 0.050-0.319s0.081-0.183 0.144-0.255 0.141-0.128 0.233-0.168c0.092-0.041 0.198-0.061 0.318-0.061s0.226 0.020 0.319 0.061c0.093 0.040 0.172 0.096 0.235 0.168 0.064 0.072 0.113 0.157 0.146 0.255s0.050 0.204 0.050 0.319v0.031c0 0.115-0.016 0.221-0.050 0.319s-0.082 0.182-0.146 0.255c-0.063 0.072-0.141 0.128-0.233 0.168s-0.198 0.060-0.318 0.060c-0.12 0-0.226-0.020-0.319-0.060s-0.171-0.096-0.235-0.168c-0.063-0.073-0.111-0.158-0.144-0.255s-0.050-0.205-0.050-0.319zM40.824 11.836v0.031c0 0.066 0.006 0.128 0.017 0.185s0.030 0.108 0.055 0.152c0.026 0.043 0.060 0.076 0.102 0.101s0.093 0.036 0.153 0.036c0.058 0 0.108-0.012 0.15-0.036s0.075-0.058 0.101-0.101c0.025-0.044 0.044-0.094 0.055-0.152s0.019-0.119 0.019-0.185v-0.031c0-0.064-0.006-0.124-0.019-0.181-0.012-0.057-0.031-0.108-0.057-0.152s-0.059-0.080-0.101-0.105c-0.042-0.025-0.092-0.038-0.152-0.038s-0.11 0.013-0.152 0.038c-0.041 0.025-0.074 0.060-0.101 0.105s-0.044 0.094-0.055 0.152c-0.012 0.056-0.017 0.117-0.017 0.181zM42.66 10.4v2.24h-0.422v-2.24h0.422zM44 12.262v-1.2h0.42v1.578h-0.395l-0.025-0.378zM44.046 11.939l0.124-0.003c0 0.105-0.012 0.203-0.036 0.293s-0.061 0.167-0.109 0.233c-0.049 0.065-0.11 0.116-0.184 0.153s-0.161 0.054-0.261 0.054c-0.077 0-0.148-0.011-0.213-0.032-0.064-0.022-0.12-0.057-0.166-0.104s-0.082-0.108-0.108-0.182c-0.025-0.075-0.038-0.165-0.038-0.27v-1.019h0.42v1.022c0 0.047 0.005 0.086 0.016 0.118s0.028 0.058 0.048 0.079c0.020 0.020 0.044 0.035 0.071 0.044s0.059 0.013 0.093 0.013c0.087 0 0.155-0.018 0.204-0.053s0.086-0.083 0.106-0.143c0.021-0.061 0.032-0.129 0.032-0.204zM45.573 11.062v0.297h-0.919v-0.297h0.919zM44.882 10.673h0.42v1.492c0 0.046 0.006 0.081 0.018 0.105s0.031 0.041 0.055 0.051c0.024 0.009 0.055 0.013 0.092 0.013 0.026 0 0.050-0.001 0.070-0.003s0.039-0.006 0.054-0.009l0.001 0.309c-0.036 0.012-0.075 0.021-0.117 0.028s-0.088 0.010-0.139 0.010c-0.092 0-0.173-0.015-0.242-0.045s-0.121-0.081-0.157-0.149c-0.037-0.068-0.055-0.158-0.055-0.268v-1.534zM46.315 11.062v1.578h-0.421v-1.578h0.421zM45.868 10.651c0-0.061 0.021-0.112 0.064-0.152s0.1-0.060 0.172-0.060c0.071 0 0.128 0.020 0.171 0.060s0.066 0.090 0.066 0.152c0 0.061-0.022 0.112-0.066 0.152s-0.1 0.060-0.171 0.060c-0.072 0-0.129-0.020-0.172-0.060s-0.064-0.090-0.064-0.152zM46.655 11.867v-0.031c0-0.116 0.017-0.222 0.050-0.319s0.081-0.183 0.144-0.255 0.141-0.128 0.233-0.168c0.092-0.041 0.198-0.061 0.318-0.061s0.226 0.020 0.319 0.061c0.093 0.040 0.172 0.096 0.235 0.168s0.113 0.157 0.146 0.255c0.033 0.097 0.050 0.204 0.050 0.319v0.031c0 0.115-0.017 0.221-0.050 0.319s-0.082 0.182-0.146 0.255c-0.063 0.072-0.141 0.128-0.233 0.168s-0.198 0.060-0.318 0.060c-0.12 0-0.226-0.020-0.319-0.060-0.092-0.040-0.171-0.096-0.235-0.168s-0.111-0.158-0.144-0.255c-0.033-0.098-0.050-0.205-0.050-0.319zM47.075 11.836v0.031c0 0.066 0.006 0.128 0.017 0.185s0.030 0.108 0.055 0.152c0.026 0.043 0.060 0.076 0.102 0.101s0.093 0.036 0.153 0.036c0.058 0 0.108-0.012 0.15-0.036s0.075-0.058 0.101-0.101c0.025-0.044 0.044-0.094 0.055-0.152s0.019-0.119 0.019-0.185v-0.031c0-0.064-0.006-0.124-0.019-0.181-0.012-0.057-0.031-0.108-0.057-0.152-0.025-0.045-0.059-0.080-0.101-0.105s-0.092-0.038-0.152-0.038-0.11 0.013-0.152 0.038c-0.041 0.025-0.074 0.060-0.101 0.105s-0.044 0.094-0.055 0.152c-0.012 0.056-0.017 0.117-0.017 0.181zM48.879 11.399v1.241h-0.42v-1.578h0.394l0.026 0.337zM48.818 11.796h-0.114c0-0.117 0.015-0.222 0.045-0.315 0.030-0.094 0.072-0.175 0.127-0.241s0.119-0.118 0.194-0.153c0.076-0.036 0.16-0.054 0.254-0.054 0.074 0 0.142 0.011 0.203 0.032s0.114 0.055 0.157 0.102c0.045 0.047 0.079 0.108 0.102 0.185s0.036 0.171 0.036 0.281v1.006h-0.423v-1.008c0-0.070-0.010-0.124-0.029-0.163s-0.048-0.066-0.086-0.082c-0.037-0.017-0.083-0.025-0.137-0.025-0.056 0-0.105 0.011-0.147 0.034s-0.075 0.053-0.102 0.093c-0.026 0.039-0.046 0.085-0.060 0.137s-0.020 0.109-0.020 0.169zM51.055 12.204c0-0.030-0.009-0.057-0.026-0.082s-0.050-0.047-0.098-0.067c-0.047-0.021-0.114-0.041-0.203-0.058-0.080-0.018-0.154-0.039-0.223-0.066s-0.127-0.060-0.178-0.098c-0.050-0.038-0.088-0.083-0.117-0.134s-0.042-0.112-0.042-0.179c0-0.066 0.014-0.128 0.042-0.187 0.029-0.058 0.071-0.11 0.124-0.155 0.054-0.046 0.121-0.081 0.198-0.107 0.079-0.026 0.167-0.039 0.265-0.039 0.137 0 0.255 0.022 0.353 0.066s0.175 0.104 0.228 0.181c0.053 0.076 0.080 0.162 0.080 0.26h-0.42c0-0.041-0.009-0.077-0.026-0.109s-0.043-0.059-0.079-0.077c-0.035-0.019-0.081-0.029-0.137-0.029-0.047 0-0.087 0.008-0.121 0.025s-0.060 0.037-0.079 0.064c-0.017 0.026-0.026 0.055-0.026 0.087 0 0.024 0.005 0.046 0.015 0.066s0.028 0.035 0.051 0.051c0.023 0.016 0.053 0.030 0.090 0.044s0.085 0.024 0.14 0.035c0.114 0.023 0.215 0.054 0.305 0.092s0.16 0.088 0.213 0.152c0.052 0.063 0.079 0.146 0.079 0.249 0 0.070-0.016 0.134-0.047 0.193s-0.076 0.109-0.134 0.153c-0.058 0.043-0.128 0.076-0.21 0.101-0.081 0.023-0.172 0.035-0.273 0.035-0.147 0-0.271-0.026-0.373-0.079s-0.178-0.119-0.23-0.2c-0.052-0.082-0.077-0.165-0.077-0.251h0.398c0.002 0.057 0.017 0.104 0.044 0.139s0.064 0.060 0.106 0.076c0.044 0.016 0.091 0.023 0.141 0.023 0.054 0 0.1-0.007 0.136-0.022s0.063-0.036 0.082-0.061c0.019-0.026 0.029-0.056 0.029-0.090zM26.718 15.84h-0.423v-1.718c0-0.12 0.023-0.22 0.070-0.302s0.114-0.145 0.2-0.187c0.087-0.043 0.189-0.064 0.308-0.064 0.039 0 0.076 0.003 0.112 0.009 0.036 0.005 0.071 0.011 0.105 0.019l-0.004 0.316c-0.018-0.005-0.038-0.008-0.058-0.010s-0.044-0.003-0.071-0.003c-0.051 0-0.094 0.009-0.13 0.026-0.035 0.017-0.062 0.041-0.080 0.074s-0.028 0.073-0.028 0.121v1.718zM27.033 14.262v0.297h-0.973v-0.297h0.973zM27.246 15.067v-0.031c0-0.116 0.017-0.222 0.050-0.319s0.081-0.183 0.144-0.255 0.141-0.128 0.233-0.168c0.092-0.041 0.198-0.061 0.318-0.061s0.226 0.020 0.319 0.061c0.093 0.040 0.172 0.096 0.235 0.168s0.113 0.157 0.146 0.255c0.033 0.097 0.050 0.204 0.050 0.319v0.031c0 0.115-0.017 0.221-0.050 0.319s-0.082 0.182-0.146 0.255c-0.063 0.072-0.141 0.128-0.233 0.168s-0.198 0.060-0.318 0.060c-0.12 0-0.226-0.020-0.319-0.060-0.092-0.040-0.171-0.096-0.235-0.168s-0.111-0.158-0.144-0.255c-0.033-0.098-0.050-0.205-0.050-0.319zM27.666 15.036v0.031c0 0.066 0.006 0.128 0.017 0.185s0.030 0.108 0.055 0.152c0.026 0.043 0.060 0.076 0.102 0.101s0.093 0.036 0.153 0.036c0.058 0 0.108-0.012 0.15-0.036s0.075-0.058 0.101-0.101c0.025-0.044 0.044-0.094 0.055-0.152s0.019-0.119 0.019-0.185v-0.031c0-0.064-0.006-0.124-0.019-0.181-0.012-0.057-0.031-0.108-0.057-0.152-0.025-0.045-0.059-0.080-0.101-0.105s-0.092-0.038-0.152-0.038-0.11 0.013-0.152 0.038c-0.041 0.025-0.074 0.060-0.101 0.105-0.025 0.044-0.044 0.094-0.055 0.152-0.012 0.056-0.017 0.117-0.017 0.181zM29.478 14.606v1.234h-0.42v-1.578h0.395l0.025 0.344zM29.954 14.252l-0.007 0.389c-0.020-0.003-0.045-0.005-0.074-0.007-0.028-0.003-0.054-0.004-0.077-0.004-0.059 0-0.111 0.008-0.155 0.023s-0.079 0.036-0.108 0.066c-0.028 0.029-0.050 0.065-0.064 0.106-0.014 0.042-0.021 0.089-0.023 0.143l-0.085-0.026c0-0.102 0.010-0.196 0.031-0.281s0.050-0.162 0.089-0.226c0.040-0.064 0.088-0.114 0.146-0.149s0.123-0.053 0.197-0.053c0.023 0 0.047 0.002 0.071 0.006 0.024 0.003 0.044 0.007 0.060 0.013zM31.333 13.717l0.443 0.968 0.443-0.968h0.477l-0.699 1.35v0.773h-0.443v-0.773l-0.7-1.35h0.478zM32.761 15.067v-0.031c0-0.116 0.017-0.222 0.050-0.319s0.081-0.183 0.144-0.255 0.141-0.128 0.233-0.168c0.092-0.041 0.198-0.061 0.318-0.061s0.226 0.020 0.319 0.061c0.093 0.040 0.172 0.096 0.235 0.168s0.113 0.157 0.146 0.255c0.033 0.097 0.050 0.204 0.050 0.319v0.031c0 0.115-0.017 0.221-0.050 0.319s-0.082 0.182-0.146 0.255c-0.063 0.072-0.141 0.128-0.233 0.168s-0.198 0.060-0.318 0.060c-0.12 0-0.226-0.020-0.319-0.060s-0.171-0.096-0.235-0.168c-0.063-0.073-0.111-0.158-0.144-0.255s-0.050-0.205-0.050-0.319zM33.181 15.036v0.031c0 0.066 0.006 0.128 0.017 0.185s0.030 0.108 0.055 0.152c0.026 0.043 0.060 0.076 0.102 0.101s0.093 0.036 0.153 0.036c0.058 0 0.108-0.012 0.15-0.036s0.075-0.058 0.101-0.101c0.025-0.044 0.044-0.094 0.055-0.152s0.019-0.119 0.019-0.185v-0.031c0-0.064-0.006-0.124-0.019-0.181-0.012-0.057-0.031-0.108-0.057-0.152s-0.059-0.080-0.101-0.105c-0.042-0.025-0.092-0.038-0.152-0.038s-0.11 0.013-0.152 0.038c-0.041 0.025-0.074 0.060-0.101 0.105s-0.044 0.094-0.055 0.152c-0.012 0.056-0.017 0.117-0.017 0.181zM35.507 15.462v-1.2h0.42v1.578h-0.395l-0.025-0.378zM35.553 15.139l0.124-0.003c0 0.105-0.012 0.203-0.036 0.293s-0.061 0.167-0.109 0.233c-0.049 0.065-0.11 0.116-0.184 0.153s-0.161 0.054-0.261 0.054c-0.077 0-0.148-0.011-0.213-0.032s-0.12-0.057-0.166-0.104c-0.046-0.048-0.082-0.108-0.108-0.182-0.025-0.075-0.038-0.165-0.038-0.27v-1.019h0.42v1.022c0 0.047 0.005 0.086 0.016 0.118 0.012 0.032 0.028 0.058 0.048 0.079s0.044 0.035 0.071 0.044c0.028 0.009 0.059 0.013 0.093 0.013 0.087 0 0.155-0.018 0.204-0.053s0.086-0.083 0.106-0.143c0.021-0.061 0.032-0.129 0.032-0.204zM36.727 14.606v1.234h-0.42v-1.578h0.395l0.025 0.344zM37.203 14.252l-0.007 0.389c-0.020-0.003-0.045-0.005-0.074-0.007-0.028-0.003-0.054-0.004-0.077-0.004-0.059 0-0.111 0.008-0.155 0.023s-0.079 0.036-0.108 0.066c-0.028 0.029-0.050 0.065-0.064 0.106-0.014 0.042-0.021 0.089-0.023 0.143l-0.085-0.026c0-0.102 0.010-0.196 0.031-0.281s0.050-0.162 0.089-0.226c0.040-0.064 0.088-0.114 0.146-0.149s0.123-0.053 0.197-0.053c0.023 0 0.047 0.002 0.071 0.006 0.024 0.003 0.044 0.007 0.060 0.013zM39.122 14.908h-0.545l-0.003-0.3h0.458c0.081 0 0.147-0.010 0.198-0.031s0.090-0.052 0.115-0.092c0.026-0.041 0.039-0.090 0.039-0.149 0-0.066-0.013-0.12-0.038-0.16s-0.063-0.070-0.115-0.089c-0.052-0.018-0.118-0.028-0.2-0.028h-0.303v1.781h-0.438v-2.123h0.741c0.123 0 0.234 0.012 0.331 0.035s0.181 0.059 0.249 0.106 0.12 0.108 0.156 0.181c0.036 0.072 0.054 0.158 0.054 0.257 0 0.088-0.020 0.168-0.060 0.242s-0.101 0.134-0.185 0.181c-0.084 0.047-0.193 0.072-0.328 0.077l-0.127 0.112zM39.103 15.84h-0.646l0.171-0.341h0.475c0.077 0 0.139-0.012 0.188-0.036s0.085-0.059 0.108-0.102c0.023-0.043 0.035-0.092 0.035-0.147 0-0.062-0.011-0.116-0.032-0.162s-0.053-0.081-0.099-0.105c-0.046-0.025-0.106-0.038-0.181-0.038h-0.421l0.003-0.3h0.525l0.101 0.118c0.129-0.002 0.233 0.021 0.312 0.069 0.080 0.047 0.138 0.107 0.174 0.182 0.037 0.075 0.055 0.155 0.055 0.241 0 0.136-0.030 0.251-0.089 0.344s-0.146 0.162-0.261 0.209c-0.114 0.047-0.253 0.070-0.417 0.070zM41.165 15.462v-1.2h0.42v1.578h-0.395l-0.025-0.378zM41.212 15.139l0.124-0.003c0 0.105-0.012 0.203-0.036 0.293s-0.061 0.167-0.109 0.233c-0.049 0.065-0.11 0.116-0.184 0.153s-0.161 0.054-0.261 0.054c-0.077 0-0.148-0.011-0.213-0.032-0.064-0.022-0.12-0.057-0.166-0.104s-0.082-0.108-0.108-0.182c-0.025-0.075-0.038-0.165-0.038-0.27v-1.019h0.42v1.022c0 0.047 0.005 0.086 0.016 0.118s0.028 0.058 0.048 0.079c0.020 0.020 0.044 0.035 0.071 0.044s0.059 0.013 0.093 0.013c0.087 0 0.155-0.018 0.204-0.053s0.086-0.083 0.106-0.143c0.021-0.061 0.032-0.129 0.032-0.204zM42.819 15.404c0-0.030-0.009-0.057-0.026-0.082s-0.050-0.047-0.098-0.067c-0.047-0.021-0.114-0.041-0.203-0.058-0.080-0.018-0.154-0.039-0.223-0.066s-0.127-0.060-0.178-0.098c-0.050-0.038-0.088-0.083-0.117-0.134s-0.042-0.112-0.042-0.179c0-0.066 0.014-0.128 0.042-0.187 0.029-0.058 0.071-0.11 0.124-0.155 0.054-0.046 0.121-0.081 0.198-0.107 0.079-0.026 0.167-0.039 0.265-0.039 0.137 0 0.255 0.022 0.353 0.066s0.175 0.104 0.228 0.181c0.053 0.076 0.080 0.162 0.080 0.26h-0.42c0-0.041-0.009-0.077-0.026-0.109s-0.043-0.059-0.079-0.077c-0.035-0.019-0.081-0.029-0.137-0.029-0.047 0-0.087 0.008-0.121 0.025s-0.060 0.037-0.079 0.064c-0.017 0.026-0.026 0.055-0.026 0.087 0 0.024 0.005 0.046 0.015 0.066s0.028 0.035 0.051 0.051c0.023 0.016 0.053 0.030 0.090 0.044s0.085 0.024 0.14 0.035c0.114 0.023 0.215 0.054 0.305 0.092s0.16 0.088 0.213 0.152c0.052 0.063 0.079 0.146 0.079 0.249 0 0.070-0.016 0.134-0.047 0.193s-0.076 0.109-0.134 0.153c-0.058 0.043-0.128 0.076-0.21 0.101-0.081 0.023-0.172 0.035-0.273 0.035-0.147 0-0.271-0.026-0.373-0.079s-0.178-0.119-0.23-0.2c-0.052-0.082-0.077-0.165-0.077-0.251h0.398c0.002 0.057 0.017 0.104 0.044 0.139s0.064 0.060 0.106 0.076c0.044 0.016 0.091 0.023 0.141 0.023 0.054 0 0.1-0.007 0.136-0.022s0.063-0.036 0.082-0.061c0.019-0.026 0.029-0.056 0.029-0.090zM44.003 14.262v1.578h-0.421v-1.578h0.421zM43.555 13.851c0-0.061 0.021-0.112 0.064-0.152s0.1-0.060 0.172-0.060c0.071 0 0.128 0.020 0.171 0.060s0.066 0.090 0.066 0.152c0 0.061-0.022 0.112-0.066 0.152s-0.1 0.060-0.171 0.060c-0.072 0-0.129-0.020-0.172-0.060s-0.064-0.090-0.064-0.152zM44.821 14.599v1.241h-0.42v-1.578h0.394l0.026 0.337zM44.76 14.996h-0.114c0-0.117 0.015-0.222 0.045-0.315 0.030-0.094 0.072-0.175 0.127-0.241s0.119-0.118 0.194-0.153c0.076-0.036 0.16-0.054 0.254-0.054 0.074 0 0.141 0.011 0.203 0.032s0.114 0.055 0.157 0.102c0.045 0.047 0.079 0.108 0.102 0.185s0.036 0.171 0.036 0.281v1.006h-0.423v-1.008c0-0.070-0.010-0.124-0.029-0.163s-0.048-0.066-0.086-0.082c-0.037-0.017-0.083-0.025-0.137-0.025-0.056 0-0.105 0.011-0.147 0.034s-0.075 0.053-0.102 0.093c-0.026 0.039-0.046 0.085-0.060 0.137s-0.020 0.109-0.020 0.169zM46.87 15.869c-0.123 0-0.232-0.019-0.33-0.058s-0.18-0.095-0.248-0.165c-0.067-0.070-0.119-0.151-0.155-0.244s-0.054-0.192-0.054-0.297v-0.058c0-0.12 0.017-0.229 0.051-0.328s0.083-0.185 0.146-0.258c0.064-0.073 0.142-0.129 0.233-0.168s0.194-0.060 0.309-0.060c0.112 0 0.211 0.018 0.297 0.055s0.159 0.089 0.217 0.158c0.059 0.068 0.104 0.15 0.134 0.245s0.045 0.199 0.045 0.315v0.175h-1.254v-0.28h0.841v-0.032c0-0.058-0.011-0.11-0.032-0.156s-0.052-0.084-0.093-0.111c-0.042-0.027-0.095-0.041-0.16-0.041-0.055 0-0.103 0.012-0.143 0.036s-0.072 0.058-0.098 0.102c-0.024 0.044-0.043 0.095-0.055 0.155-0.012 0.058-0.017 0.122-0.017 0.192v0.058c0 0.063 0.009 0.121 0.026 0.175 0.019 0.053 0.044 0.1 0.077 0.139 0.034 0.039 0.075 0.069 0.123 0.090s0.104 0.032 0.165 0.032c0.076 0 0.146-0.015 0.211-0.044s0.123-0.075 0.171-0.136l0.204 0.222c-0.033 0.048-0.078 0.093-0.136 0.137s-0.124 0.080-0.204 0.108c-0.080 0.027-0.171 0.041-0.273 0.041zM48.669 15.404c0-0.030-0.009-0.057-0.026-0.082s-0.050-0.047-0.098-0.067c-0.047-0.021-0.114-0.041-0.203-0.058-0.080-0.018-0.154-0.039-0.223-0.066s-0.127-0.060-0.178-0.098c-0.050-0.038-0.088-0.083-0.117-0.134s-0.042-0.112-0.042-0.179c0-0.066 0.014-0.128 0.042-0.187s0.071-0.11 0.124-0.155c0.054-0.046 0.121-0.081 0.198-0.107s0.167-0.039 0.265-0.039c0.137 0 0.255 0.022 0.353 0.066s0.175 0.104 0.227 0.181c0.053 0.076 0.080 0.162 0.080 0.26h-0.42c0-0.041-0.009-0.077-0.026-0.109s-0.043-0.059-0.079-0.077c-0.035-0.019-0.081-0.029-0.137-0.029-0.047 0-0.087 0.008-0.121 0.025s-0.060 0.037-0.079 0.064c-0.017 0.026-0.026 0.055-0.026 0.087 0 0.024 0.005 0.046 0.015 0.066 0.011 0.018 0.028 0.035 0.051 0.051s0.053 0.030 0.090 0.044c0.038 0.013 0.085 0.024 0.14 0.035 0.114 0.023 0.215 0.054 0.305 0.092s0.16 0.088 0.213 0.152c0.052 0.063 0.079 0.146 0.079 0.249 0 0.070-0.016 0.134-0.047 0.193s-0.076 0.109-0.134 0.153c-0.058 0.043-0.128 0.076-0.21 0.101-0.081 0.023-0.172 0.035-0.273 0.035-0.147 0-0.271-0.026-0.373-0.079s-0.178-0.119-0.23-0.2c-0.052-0.082-0.077-0.165-0.077-0.251h0.398c0.002 0.057 0.017 0.104 0.044 0.139 0.028 0.035 0.064 0.060 0.106 0.076s0.091 0.023 0.141 0.023c0.054 0 0.1-0.007 0.136-0.022s0.063-0.036 0.082-0.061c0.019-0.026 0.029-0.056 0.029-0.090zM50.263 15.404c0-0.030-0.009-0.057-0.026-0.082s-0.050-0.047-0.098-0.067c-0.047-0.021-0.114-0.041-0.203-0.058-0.080-0.018-0.154-0.039-0.223-0.066s-0.127-0.060-0.178-0.098c-0.050-0.038-0.088-0.083-0.117-0.134s-0.042-0.112-0.042-0.179c0-0.066 0.014-0.128 0.042-0.187s0.070-0.11 0.124-0.155c0.054-0.046 0.121-0.081 0.198-0.107s0.167-0.039 0.265-0.039c0.137 0 0.255 0.022 0.353 0.066 0.099 0.044 0.175 0.104 0.228 0.181 0.053 0.076 0.080 0.162 0.080 0.26h-0.42c0-0.041-0.009-0.077-0.026-0.109s-0.043-0.059-0.079-0.077c-0.035-0.019-0.081-0.029-0.137-0.029-0.047 0-0.087 0.008-0.121 0.025s-0.060 0.037-0.079 0.064c-0.017 0.026-0.026 0.055-0.026 0.087 0 0.024 0.005 0.046 0.015 0.066 0.011 0.018 0.028 0.035 0.051 0.051s0.053 0.030 0.090 0.044c0.038 0.013 0.085 0.024 0.14 0.035 0.114 0.023 0.215 0.054 0.305 0.092s0.16 0.088 0.213 0.152c0.053 0.063 0.079 0.146 0.079 0.249 0 0.070-0.016 0.134-0.047 0.193s-0.076 0.109-0.134 0.153c-0.058 0.043-0.128 0.076-0.21 0.101-0.081 0.023-0.172 0.035-0.273 0.035-0.147 0-0.271-0.026-0.373-0.079s-0.178-0.119-0.23-0.2c-0.052-0.082-0.077-0.165-0.077-0.251h0.398c0.002 0.057 0.017 0.104 0.044 0.139 0.028 0.035 0.064 0.060 0.106 0.076 0.044 0.016 0.091 0.023 0.142 0.023 0.054 0 0.1-0.007 0.136-0.022s0.063-0.036 0.082-0.061c0.019-0.026 0.029-0.056 0.029-0.090z"></path>
</svg>
